<svg width="56" height="49" viewBox="0 0 56 49" fill="none" xmlns="http://www.w3.org/2000/svg">
<path d="M0.500001 24.796C0.500001 25.9894 0.969871 27.134 1.80624 27.9779C2.64261 28.8219 3.77697 29.296 4.95978 29.296H40.2812L28.5669 41.116C27.7791 41.969 27.3502 43.0973 27.3706 44.2631C27.391 45.4289 27.859 46.5412 28.6762 47.3657C29.4933 48.1902 30.5956 48.6624 31.751 48.683C32.9064 48.7036 34.0246 48.2708 34.87 47.476L54.1957 27.976C55.0309 27.1322 55.5 25.9885 55.5 24.796C55.5 23.6035 55.0309 22.4597 54.1957 21.616L34.87 2.11597C34.4617 1.67384 33.9694 1.31923 33.4223 1.07328C32.8752 0.827328 32.2847 0.695077 31.6859 0.684416C31.0871 0.673755 30.4922 0.784903 29.9369 1.01123C29.3816 1.23755 28.8772 1.57442 28.4537 2.00173C28.0302 2.42905 27.6963 2.93805 27.472 3.49838C27.2477 4.05871 27.1375 4.65888 27.1481 5.2631C27.1587 5.86732 27.2897 6.4632 27.5335 7.01519C27.7773 7.56719 28.1287 8.06399 28.5669 8.47596L40.2812 20.296H4.95978C2.49798 20.296 0.500001 22.312 0.500001 24.796Z" fill="white"/>
</svg>
