<svg width="37" height="30" viewBox="0 0 37 30" fill="none" xmlns="http://www.w3.org/2000/svg">
<path d="M30.4326 22.4963C30.2008 22.4243 29.7566 22.099 29.71 21.7348C29.6211 21.0243 29.0039 20.7215 29.0656 20.6331" fill="white"/>
<path d="M30.4325 22.4963C30.0576 22.4573 29.6798 22.18 29.5759 21.8053C29.5262 21.483 29.3787 21.1877 29.1905 20.9149C29.1619 20.8684 29.0911 20.765 29.07 20.714C29.061 20.6901 29.0444 20.6541 29.067 20.6316C29.064 20.6586 29.0911 20.6691 29.1092 20.6826C29.2657 20.777 29.4193 20.8729 29.5443 21.0123C29.6888 21.1727 29.8002 21.3766 29.8408 21.5954C29.8634 21.7213 29.8604 21.7783 29.892 21.8577C30.0034 22.1126 30.1992 22.3194 30.4355 22.4948L30.4325 22.4963Z" fill="white"/>
<path d="M30.5867 10.3563C30.2946 10.1824 29.9815 9.91263 30.0552 9.51841C30.1049 9.33404 30.2193 9.22911 30.2841 9.06873C30.4286 8.80941 30.3895 8.49613 30.5641 8.23831C30.6996 8.04494 30.9766 7.97599 31.1723 7.88306C31.3485 7.80661 31.5442 7.74515 31.7113 7.66871C31.7173 7.66571 31.7218 7.66121 31.7083 7.67171C31.6947 7.6837 31.6872 7.70168 31.6887 7.69569C31.6992 7.52481 31.5201 7.30296 31.35 7.24451C31.1949 7.20253 30.9826 7.249 30.8486 7.33594C30.7312 7.41988 30.6484 7.58177 30.531 7.6762C30.3849 7.80811 30.1742 7.85158 29.9965 7.86807C29.4982 7.88456 29.2257 8.26079 29.0797 8.72696C29.0676 8.19334 29.3853 7.6732 29.9393 7.57877C30.1019 7.5368 30.2223 7.50232 30.2901 7.41988C30.3247 7.38241 30.3789 7.29547 30.406 7.249C30.6725 6.8188 31.3545 6.63743 31.7625 6.97769C32.0395 7.20253 32.2999 7.65072 32.0154 7.98948C31.9371 8.06143 31.8588 8.08392 31.779 8.11689C31.5532 8.19934 31.3199 8.28028 31.097 8.35972C30.9676 8.41368 30.8908 8.41518 30.8276 8.5336C30.7493 8.73896 30.677 9.01776 30.54 9.21262C30.4467 9.36252 30.3067 9.48543 30.2645 9.58286C30.1531 9.85118 30.4015 10.154 30.5852 10.3563H30.5867Z" fill="white"/>
<path d="M30.4908 12.9091C30.3598 12.9046 30.2379 13.1894 29.9639 13.1969C29.8766 13.1984 29.5619 13.6406 29.1946 13.6196C28.8272 13.5986 29.2172 14.3241 29.2051 14.5969C29.2021 14.6599 29.1344 15.138 28.8001 15.3299C28.2311 15.6582 27.9691 16.7989 27.9887 16.8453C28.0489 16.9788 28.1739 17.0552 28.1242 17.1691C28.082 17.2681 27.9616 17.2681 27.8758 17.3655C27.8351 17.412 27.7704 17.5154 27.9661 17.8856C28.0549 18.055 28.2567 18.3908 28.3289 18.3788C28.3861 18.3683 28.4448 18.1689 28.4599 17.8496C28.4855 17.3235 28.9718 17.2456 28.7986 16.8843C28.7279 16.7359 28.6767 16.6745 28.6556 16.5291C28.6436 16.4436 28.767 16.2023 29.0666 15.8965C29.3165 15.6402 29.3933 15.6447 29.6929 15.3854C30.0331 15.0901 29.5092 14.2402 29.7095 14.0288C29.7877 13.9464 29.8675 13.9494 30.14 13.747C30.2725 13.6481 30.7513 13.5147 30.7994 13.4517C31.0012 13.1984 30.5902 12.9136 30.4893 12.9091H30.4908Z" fill="white"/>
<path d="M30.3776 22.6731C29.9892 22.5187 29.6444 22.3719 29.2575 22.4108C29.0663 22.4408 28.6508 22.5577 28.4716 22.3179C28.3647 22.18 28.3512 22.0571 28.2699 21.9252C28.2458 21.8727 28.2006 21.8412 28.2247 21.8382L28.2157 21.8337C28.0817 21.7948 27.9296 21.9836 27.7851 21.9252C27.6586 21.8817 27.5984 21.7693 27.5427 21.6658C27.6315 21.7033 27.7234 21.7678 27.8122 21.7573C28.1525 21.3286 28.4927 21.465 28.7291 21.8907C28.7516 21.9207 28.7908 22.0151 28.8058 22.0241C28.8058 22.0241 28.7998 22.0166 28.7983 22.0181C28.9067 22.0286 29.0437 21.9851 29.2319 21.9821C29.7121 21.9791 30.1518 22.2819 30.3776 22.6716V22.6731Z" fill="white"/>
<path d="M36.5947 19.1221C36.5209 17.5033 36.3688 16.3536 36.0722 14.1096C35.7139 11.401 35.5348 10.0475 35.2216 8.79288C35.056 8.12585 34.6345 7.60421 34.8407 6.82026C34.9431 6.43353 34.8543 5.30033 34.8543 3.90481C34.8543 3.26775 33.6589 1.94868 33.141 1.57694C31.9713 0.73753 29.2493 0.176923 27.7634 0.554658C25.594 1.10627 25.052 2.61421 23.4998 1.89472C21.1799 0.819972 18.202 1.87973 17.2852 1.35959C14.4066 -0.277258 13.3784 0.568149 10.4923 0.0360222C7.86827 -0.448138 7.6861 4.09368 5.61303 4.93309C4.12711 5.53566 3.61072 6.88022 3.30812 7.74961C2.20609 10.9169 1.47442 9.88261 1.56776 11.5944C1.84779 16.7538 1.38108 15.8589 1.02428 18.8508C0.843619 20.3633 1.06192 20.4997 0.127002 25.1869C-0.383361 27.7456 0.80297 28.6524 0.897817 29.7722C0.908355 29.8996 1.01073 30 1.1387 30H17.6058C17.7202 30 17.8286 29.946 17.8964 29.8531C18.0289 29.6747 18.1689 29.4934 18.3194 29.309C18.5257 29.0542 18.7304 28.8173 18.9307 28.5985C19.0044 28.4921 19.161 28.2327 19.1761 27.867C19.1791 27.7801 19.1971 27.3184 18.89 26.9736C18.6205 26.6708 18.4203 26.8132 17.9114 26.446C17.5787 26.2047 17.5863 26.0862 17.3002 25.9588C17.0382 25.8419 16.8064 25.8389 16.5249 25.8374C16.138 25.8344 16.0567 25.9004 15.465 25.9588C15.1308 25.9918 14.9471 26.0098 14.6897 25.9993C14.3058 25.9843 14.2154 25.9229 13.5877 25.8374C13.0938 25.77 13.1616 25.8089 12.853 25.7565C12.1333 25.6336 12.1364 25.4837 11.6696 25.4717C11.4679 25.4672 11.4363 25.4942 10.813 25.5121C10.5842 25.5181 10.4683 25.5211 10.405 25.5121C10.0211 25.4522 9.9037 25.2273 9.5484 25.025C9.0004 24.7132 8.79264 24.9725 8.48853 24.6997C8.19496 24.4359 8.39519 24.1991 8.08054 23.5215C7.89838 23.1288 7.65599 22.8335 7.38651 22.5068C7.22542 22.3104 7.0011 22.0601 6.85657 21.8982C6.41998 21.4095 6.40643 21.4245 6.36729 21.3301C6.30255 21.1742 6.32965 21.1142 6.40794 20.1519C6.43353 19.8476 6.43503 19.7892 6.48923 19.7052C6.66236 19.4369 7.09444 19.329 7.42716 19.4204C7.81859 19.5283 8.1227 19.9256 8.20249 20.029C8.33648 20.2044 8.3967 20.3438 8.52918 20.3543C8.66769 20.3648 8.73543 20.2239 8.93717 20.1099C9.03954 20.053 9.25784 19.9451 9.50775 19.9885C9.60712 20.005 9.71401 20.0245 9.78025 20.1099C9.87961 20.2418 9.75917 20.3693 9.78025 20.732C9.79229 20.9389 9.83294 20.9254 9.83445 21.1247C9.83445 21.3301 9.79229 21.432 9.86155 21.504C9.91424 21.5594 9.95639 21.519 10.1069 21.5849C10.2063 21.6284 10.2153 21.6584 10.3523 21.7333C10.3523 21.7333 10.4457 21.7843 10.5556 21.8277C10.947 21.9821 11.0012 21.9536 11.0178 21.9357C11.0494 21.9027 11.0404 21.8382 11.0614 21.8382C11.0825 21.8382 11.0961 21.9027 11.1232 21.9027C11.1337 21.9027 11.1427 21.8937 11.1608 21.8547C11.2029 21.7663 11.1954 21.7198 11.2391 21.6718C11.2541 21.6554 11.2662 21.6434 11.2797 21.6449C11.3174 21.6509 11.3535 21.7693 11.364 21.8202C11.367 21.8307 11.3716 21.8547 11.3881 21.8607C11.3987 21.8652 11.4122 21.8592 11.4363 21.8472C11.5071 21.8127 11.5116 21.8097 11.5251 21.8067C11.5357 21.8052 11.5537 21.8067 11.5929 21.8097C11.6501 21.8142 11.6516 21.8187 11.6712 21.8172C11.7088 21.8127 11.7103 21.7963 11.7464 21.7903C11.7524 21.7903 11.8036 21.7798 11.8443 21.8067C11.8834 21.8322 11.8699 21.8607 11.909 21.8952C11.9482 21.9282 11.9978 21.9327 12.028 21.9357C12.0927 21.9417 12.1077 21.9192 12.1409 21.9357C12.183 21.9551 12.168 21.9941 12.2116 22.0241C12.2568 22.0541 12.314 22.0451 12.3577 22.0376C12.3908 22.0316 12.4119 22.0286 12.4329 22.0136C12.4435 22.0061 12.4766 21.9791 12.4901 21.8652C12.5022 21.7753 12.4871 21.7393 12.4932 21.6284C12.4932 21.6284 12.4962 21.5849 12.5037 21.5264C12.5248 21.3706 12.591 21.2581 12.6738 21.0723C12.7461 20.9089 12.7822 20.8279 12.8003 20.741C12.8153 20.666 12.8138 20.5716 12.8108 20.3827C12.8108 20.3498 12.8168 20.2164 12.8274 19.9525C12.8289 19.9031 12.8334 19.8401 12.8575 19.8341C12.8951 19.8236 12.9177 19.954 13.0171 19.993C13.127 20.035 13.2143 19.9256 13.3061 19.9795C13.3573 20.0095 13.3498 20.0575 13.4085 20.077C13.4597 20.0949 13.5109 20.0755 13.5545 20.056C13.6629 20.011 13.6629 19.9645 13.7442 19.9241C13.8466 19.8731 13.8918 19.9211 14.0333 19.8836C14.0333 19.8836 14.1281 19.8581 14.241 19.7787C14.3359 19.7127 14.7168 18.9707 14.363 18.4416C14.0875 18.0309 13.6915 18.2303 13.4251 17.8121C13.1902 17.4448 13.2564 16.9157 13.4251 16.5739C13.4747 16.475 13.4717 16.5125 13.6494 16.2486C14.0905 15.5936 14.089 15.3853 14.3223 15.2938C14.5858 15.1919 14.8764 15.3448 14.9336 15.3748C15.2151 15.5232 15.1925 15.718 15.5041 15.9024C15.6005 15.9593 15.879 16.1242 16.0958 16.0238C16.2554 15.9504 16.2268 15.802 16.4421 15.5561C16.549 15.4332 16.5926 15.4287 16.8501 15.2309C17.0879 15.048 17.2761 14.9041 17.4613 14.7032C17.5396 14.6178 17.6766 14.4304 17.9506 14.0527C18.1598 13.7649 18.1945 13.7094 18.2968 13.6465C18.4534 13.5505 18.5166 13.591 18.8885 13.4846C19.0496 13.4381 19.2016 13.3931 19.3778 13.3017C19.5298 13.2223 19.7195 13.1248 19.8475 12.957C19.8882 12.903 20.1456 12.8146 20.1893 12.155C20.2179 11.7233 20.0267 11.425 20.1742 11.1088C20.2164 11.0173 20.2465 10.7775 20.3368 10.728C20.5461 10.6141 20.7659 10.812 20.7674 10.5751C20.7689 10.3848 20.7478 10.112 20.6424 9.97105C20.5656 9.86762 20.4015 9.64428 20.3368 9.34149C20.2916 9.13464 20.2781 8.82885 20.3774 8.79288C20.4271 8.77489 20.4723 8.83635 20.6228 8.95477C20.7704 9.07168 20.9044 9.14813 21.1738 9.29952C21.3997 9.42693 21.5111 9.48989 21.6225 9.52287C21.8227 9.58133 21.8784 9.54235 22.2548 9.56334C22.3391 9.56783 22.3015 9.56783 22.9488 9.64428C23.3553 9.69225 23.417 9.69824 23.5601 9.72522C23.7618 9.7642 23.8973 9.80317 24.0493 9.84664C24.3384 9.93058 24.4829 9.97255 24.5191 10.0295C24.635 10.2184 24.3625 10.4342 24.4784 10.74C24.513 10.8284 24.5627 10.8809 24.6621 10.9843C24.7976 11.1237 24.9903 11.3231 25.2131 11.2886C25.2929 11.2766 25.3516 11.2392 25.5187 11.0653C26.0125 10.5556 26.0773 10.3038 26.3693 10.2334C26.5138 10.1974 26.5696 10.2424 26.6418 10.1794C26.7878 10.0505 26.6915 9.74021 26.5876 9.33999C26.5876 9.33999 26.419 8.68945 26.3151 8.09437C26.2188 7.53376 26.3226 7.81706 26.2338 6.84874C26.2218 6.72433 26.2082 6.58193 26.288 6.44253C26.3859 6.27465 26.5048 6.31362 26.7773 6.06329C26.8947 5.95387 26.9339 5.89091 27.0769 5.79198C27.1823 5.71854 27.244 5.67657 27.3223 5.65708C27.5255 5.60462 27.6535 5.74851 28.0028 5.90141C28.3927 6.07229 28.4198 5.97186 28.6562 6.11875C28.9181 6.28064 28.8639 6.39006 29.1726 6.63289C29.3201 6.74981 29.558 6.93718 29.8801 6.95817C30.0909 6.97166 30.109 6.89821 30.3694 6.87722C30.4853 6.86823 30.9596 6.82776 31.2667 7.09457C31.4022 7.21149 31.476 7.45432 31.6205 7.93398C31.7364 8.32221 31.7951 8.51707 31.8102 8.69245C31.8493 9.13314 31.753 9.4809 31.6476 9.85713C31.5874 10.0745 31.5302 10.2214 31.4293 10.4792C31.3149 10.7745 31.1508 11.1972 30.8858 11.6978C30.4884 12.4458 30.3258 12.4983 30.2881 12.8895C30.2535 13.2373 30.3483 13.543 30.3965 13.675C30.523 14.0197 30.6329 13.9987 30.7774 14.3255C30.9837 14.7917 30.8015 14.9341 30.9957 15.5172C31.1162 15.8799 31.1974 15.8589 31.2953 16.2217C31.3254 16.3326 31.4022 16.6489 31.3766 17.0611C31.3555 17.4148 31.2697 17.6637 31.1583 17.9814C30.9701 18.5166 30.8798 18.527 30.6419 19.1461C30.4658 19.6048 30.5185 19.5928 30.3423 20.0125C30.1677 20.4322 30.0743 20.5401 30.0156 20.8249C29.9464 21.1592 29.9885 21.426 30.0156 21.6104C30.2595 23.2487 30.3754 24.0747 30.0156 24.4269C29.8305 24.6083 29.6694 24.5513 29.418 24.8331C29.2975 24.968 29.1891 25.1434 29.0642 25.5646C28.7826 26.5134 29.0054 26.7383 28.7104 27.1085C28.6486 27.1865 28.4514 27.3409 28.057 27.6497C27.661 27.9599 27.6896 27.9105 27.5948 28.0019C27.232 28.3527 26.9128 28.9987 27.1055 29.5728C27.1371 29.6672 27.1793 29.7482 27.2214 29.8141C27.2771 29.9011 27.3735 29.952 27.4759 29.952L34.6736 29.997C34.776 29.997 34.8694 29.9385 34.9115 29.8456C35.3391 28.9028 35.8765 27.5207 36.2439 25.7895C36.7723 23.3027 36.694 21.2911 36.5947 19.1191V19.1221ZM10.536 27.3199C10.7513 27.2374 10.8657 27.194 11.0238 27.2045C11.4709 27.2314 11.5868 27.6437 12.0671 27.87C12.3065 27.9824 12.2282 27.858 12.8951 27.9569C13.6494 28.0694 13.6283 28.2103 13.8601 28.1008C14.2471 27.918 14.36 27.4953 14.6882 27.6092C14.8914 27.6796 14.8718 27.8505 15.1187 28.0139C15.4244 28.2163 15.6833 28.1068 16.1741 27.8985C16.5625 27.7336 16.6017 27.6242 16.7763 27.6961C16.9886 27.7831 17.0669 28.0034 17.2867 27.9854C17.3544 27.9794 17.3996 27.9539 17.6841 27.7246C18.19 27.3184 18.3254 27.173 18.3315 27.2254C18.348 27.3738 17.94 27.9554 17.5712 28.2447C17.4523 28.3377 17.1858 28.3766 17.1512 28.3602C16.966 28.2747 16.9193 28.2103 16.7883 28.2163C16.6754 28.2207 16.567 28.2732 16.5053 28.3032C16.4165 28.3467 16.3638 28.3856 16.3126 28.4186C16.0883 28.564 15.8956 28.5805 15.7571 28.5925C15.7179 28.5955 15.5629 28.6075 15.3596 28.564C15.2226 28.534 15.1549 28.519 15.0871 28.4771C14.8643 28.3362 14.8041 28.1053 14.6325 28.1308C14.5753 28.1398 14.5316 28.1728 14.4729 28.2178C14.3299 28.3287 14.2862 28.4516 14.1778 28.564C14.0453 28.7019 13.9294 28.7064 13.8481 28.7079C13.69 28.7124 13.6689 28.6165 13.4401 28.534C13.2911 28.4816 13.1782 28.4786 13.0321 28.4756C12.8665 28.4726 12.865 28.4966 12.6015 28.5041C12.3667 28.5115 12.302 28.4936 12.2493 28.4756C12.1619 28.4441 12.1619 28.4246 11.9768 28.3317C11.7645 28.2237 11.7645 28.2492 11.6817 28.1878C11.5432 28.0828 11.5402 28.0109 11.3866 27.87C11.2195 27.7171 11.084 27.6751 11.0569 27.6676C10.9515 27.6377 10.9455 27.6691 10.6595 27.6961C10.3614 27.7246 10.3508 27.6901 10.262 27.7546C10.1371 27.843 10.11 27.9449 9.98951 27.9854C9.86757 28.0274 9.72153 27.9809 9.71702 27.8985C9.70949 27.7486 10.1717 27.4578 10.5345 27.3199H10.536ZM9.98048 8.94577C9.77423 9.36997 9.58905 9.51387 9.64024 9.84064C9.68691 10.1329 9.87359 10.2573 9.79079 10.5392C9.74111 10.71 9.60561 10.8374 9.33763 11.0848C8.50058 11.8552 8.52316 11.8163 8.42982 11.9152C7.91795 12.4578 7.87278 12.9959 7.86225 13.1383C7.8231 13.7259 8.15431 13.8758 7.89988 14.318C7.82009 14.4574 7.66954 14.6073 7.36995 14.9071C7.08089 15.1964 6.88668 15.3538 6.65183 15.5621C6.0978 16.0523 5.81477 16.3026 5.59346 16.6099C5.08761 17.3129 5.2201 17.875 5.06353 17.8765C4.94459 17.8765 4.80759 17.5542 4.79856 17.2649C4.79404 17.1195 4.81813 16.8302 5.17644 16.3701C5.54529 15.8964 5.74702 15.9099 6.2348 15.3883C6.35524 15.2593 6.66989 14.9071 6.91529 14.4274C7.12154 14.0242 7.18778 13.7079 7.25553 13.3797C7.37597 12.7906 7.29919 12.6841 7.32027 12.5208C7.32027 12.5208 7.33382 12.4368 7.36844 12.3529C7.74331 11.443 8.52768 10.9484 8.52768 10.9484C8.70532 10.8359 8.84985 10.773 8.97631 10.5871C9.12987 10.3608 9.14041 10.1239 9.14192 10.073C9.15095 9.7522 8.98234 9.72522 8.97932 9.46591C8.97631 9.28603 9.17353 9.01622 9.56496 8.4826C9.75014 8.23227 9.77423 8.21279 9.88262 8.0494C10.1401 7.66267 10.2018 7.47081 10.2424 7.4828C10.3177 7.50528 10.3222 8.23677 9.97747 8.94577H9.98048ZM18.6175 7.96546C18.0785 8.08837 17.7413 9.56184 17.3123 9.84814C16.9841 10.0655 16.0808 9.11365 15.7059 9.84814C15.5975 10.0595 15.0269 10.2334 14.6852 10.5377C14.3946 10.7955 14.375 11.2212 13.8722 11.4385C13.5079 11.5959 13.3965 11.6094 13.2399 11.7638C13.0457 11.9542 12.9794 12.1715 12.9132 12.3934C12.6031 13.4426 12.4947 13.8998 12.4646 13.8968C12.4314 13.8923 11.9497 13.2493 12.0761 12.6137C12.2011 11.9856 12.3546 11.506 12.6121 11.2152C12.7145 11.0998 13.3528 10.9094 13.7999 10.6486C14.366 10.3188 14.2892 10.1254 14.637 9.74921C15.2061 9.13314 15.6682 8.78688 15.9422 8.81686C16.6167 8.88881 16.6002 9.14213 17.1632 8.91729C17.4252 8.81236 17.5757 7.72863 18.2171 7.26845C18.7078 6.9147 20.129 7.74661 20.1576 7.78409C20.2088 7.85154 19.7858 7.70164 18.619 7.96696L18.6175 7.96546ZM35.1449 22.7631C34.9085 22.925 34.6345 23.1798 34.4764 23.3462C34.1603 23.6804 33.9826 23.8363 33.8833 24.1211C33.7478 24.5019 33.5972 24.5393 33.5114 25.2169C33.4647 25.5886 33.4181 25.6306 33.3413 25.7655C33.1471 26.1087 33.1561 26.3021 32.9122 26.6678C32.7075 26.9766 32.5644 26.8882 32.3868 26.9961C32.2377 27.086 32.158 27.0111 31.7078 27.0396C31.5196 27.0516 31.348 27.0636 31.1342 27.128C31.0695 27.1475 30.8422 27.2195 30.5832 27.3918C30.3348 27.5567 30.1812 27.7321 30.0954 27.831C30.0081 27.9315 29.8967 28.0604 29.7988 28.2477C29.5655 28.6929 29.6016 29.1021 29.5233 29.1051C29.4782 29.1066 29.4345 28.9672 29.418 28.8848C29.3442 28.5415 29.3653 28.1473 29.4902 27.9165C29.6438 27.6332 29.6709 27.4293 29.7492 27.3499C29.847 27.2494 30.2129 26.8807 30.672 26.6259C31.1583 26.3561 31.3405 26.6933 31.8584 26.4235C32.2995 26.1942 32.5208 26.0788 32.6864 25.8749C32.8836 25.6306 32.98 25.3548 33.1109 24.974C33.1802 24.7747 33.2178 24.6293 33.2811 24.3804C33.4888 23.568 33.4467 23.4256 33.6198 23.2158C33.665 23.1603 33.8486 23.0539 34.2145 22.8425C34.8061 22.4993 34.8272 22.5472 35.0395 22.3689C35.2337 22.2055 35.2984 22.096 35.4655 22.0736C35.6673 22.0466 35.8991 22.1605 35.9006 22.2609C35.9021 22.4078 35.729 22.3659 35.1479 22.7631H35.1449Z" fill="white"/>
<path d="M30.1254 22.0722C30.1977 22.3345 30.1962 22.9101 29.9523 23.0975C29.478 23.4617 29.5864 24.2037 29.4871 24.1752" fill="white"/>
<path d="M30.1254 22.0721C30.3106 22.4274 30.3467 22.9685 30.0034 23.2488C29.7656 23.4691 29.6888 23.8349 29.5503 24.1287C29.5382 24.1482 29.5156 24.1901 29.4886 24.1751C29.5126 24.1676 29.5021 24.1377 29.5021 24.1167C29.4795 23.9428 29.4645 23.7704 29.4961 23.5935C29.5352 23.3447 29.6797 23.1064 29.898 22.9505C30.0832 22.7077 30.0998 22.3794 30.1254 22.0706V22.0721Z" fill="white"/>
</svg>
