<svg width="22" height="22" viewBox="0 0 22 22" fill="none" xmlns="http://www.w3.org/2000/svg">
<path d="M6 11.5H10.5V20.5H1.5V11.5H5.5H6ZM11.5 20.5V11.5H16H16.5H20.5V20.5H11.5ZM6.5 10.5V1.5H15.5V10.5H11H6.5Z" stroke="#E2E2E2"/>
<path d="M11 11H1V21H11M11 11V21M11 11H21V21H11M11 4V8M6 1H16V11H6V1Z" stroke="#E2E2E2" stroke-linecap="round" stroke-linejoin="round"/>
<path d="M9 6L11 4L13 6M4 16H8M4 16L6 18M4 16L6 14M18 16H14M18 16L16 14M18 16L16 18" stroke="#E2E2E2" stroke-linecap="round" stroke-linejoin="round"/>
</svg>
