<svg width="122" height="122" viewBox="0 0 122 122" fill="none" xmlns="http://www.w3.org/2000/svg">
<path opacity="0.6" d="M94.75 38.1836V53.1836H61V11.9336H68.5C75.4619 11.9336 82.1387 14.6992 87.0616 19.622C91.9844 24.5449 94.75 31.2217 94.75 38.1836Z" fill="#E2E2E2"/>
<path d="M68.5 8.18359H53.5C45.5462 8.19228 37.9206 11.3558 32.2964 16.98C26.6722 22.6042 23.5087 30.2298 23.5 38.1836V83.1836C23.5087 91.1374 26.6722 98.763 32.2964 104.387C37.9206 110.011 45.5462 113.175 53.5 113.184H68.5C76.4538 113.175 84.0794 110.011 89.7036 104.387C95.3278 98.763 98.4913 91.1374 98.5 83.1836V38.1836C98.4913 30.2298 95.3278 22.6042 89.7036 16.98C84.0794 11.3558 76.4538 8.19228 68.5 8.18359ZM91 38.1836V49.4336H64.75V15.6836H68.5C74.4655 15.6898 80.1848 18.0623 84.4031 22.2805C88.6213 26.4988 90.9938 32.2181 91 38.1836ZM53.5 15.6836H57.25V49.4336H31V38.1836C31.0062 32.2181 33.3787 26.4988 37.597 22.2805C41.8152 18.0623 47.5345 15.6898 53.5 15.6836ZM68.5 105.684H53.5C47.5345 105.677 41.8152 103.305 37.597 99.0866C33.3787 94.8684 31.0062 89.1491 31 83.1836V56.9336H91V83.1836C90.9938 89.1491 88.6213 94.8684 84.4031 99.0866C80.1848 103.305 74.4655 105.677 68.5 105.684Z" fill="#E2E2E2"/>
</svg>
