<svg width="75" height="105" viewBox="0 0 75 105" fill="none" xmlns="http://www.w3.org/2000/svg">
<path opacity="0.6" d="M3.5 30V45H37.25V3.75H29.75C22.7881 3.75 16.1113 6.51562 11.1884 11.4384C6.26562 16.3613 3.5 23.0381 3.5 30Z" fill="#E2E2E2"/>
<path d="M45 0H30C22.0462 0.00868526 14.4206 3.17218 8.79639 8.79639C3.17218 14.4206 0.00868526 22.0462 0 30V75C0.00868526 82.9538 3.17218 90.5794 8.79639 96.2036C14.4206 101.828 22.0462 104.991 30 105H45C52.9538 104.991 60.5794 101.828 66.2036 96.2036C71.8278 90.5794 74.9913 82.9538 75 75V30C74.9913 22.0462 71.8278 14.4206 66.2036 8.79639C60.5794 3.17218 52.9538 0.00868526 45 0ZM67.5 30V41.25H41.25V7.5H45C50.9655 7.5062 56.6848 9.87873 60.9031 14.097C65.1213 18.3152 67.4938 24.0345 67.5 30ZM30 7.5H33.75V41.25H7.5V30C7.5062 24.0345 9.87873 18.3152 14.097 14.097C18.3152 9.87873 24.0345 7.5062 30 7.5ZM45 97.5H30C24.0345 97.4938 18.3152 95.1213 14.097 90.9031C9.87873 86.6848 7.5062 80.9655 7.5 75V48.75H67.5V75C67.4938 80.9655 65.1213 86.6848 60.9031 90.9031C56.6848 95.1213 50.9655 97.4938 45 97.5Z" fill="#E2E2E2"/>
</svg>
