<svg width="77" height="107" viewBox="0 0 77 107" fill="none" xmlns="http://www.w3.org/2000/svg">
<path opacity="0.6" d="M46.0625 34.5938V57.2812C46.0625 58.2841 45.6641 59.2459 44.955 59.955C44.2459 60.6641 43.2841 61.0625 42.2812 61.0625H34.7188C33.7159 61.0625 32.7541 60.6641 32.045 59.955C31.3359 59.2459 30.9375 58.2841 30.9375 57.2812V34.5938C30.9375 33.5909 31.3359 32.6291 32.045 31.92C32.7541 31.2109 33.7159 30.8125 34.7188 30.8125H42.2812C43.2841 30.8125 44.2459 31.2109 44.955 31.92C45.6641 32.6291 46.0625 33.5909 46.0625 34.5938Z" fill="#EDEDED"/>
<path d="M46.0625 0.5625H30.9375C22.9174 0.571258 15.2283 3.76111 9.55719 9.43219C3.88612 15.1033 0.696258 22.7924 0.6875 30.8125V76.1875C0.696258 84.2076 3.88612 91.8967 9.55719 97.5678C15.2283 103.239 22.9174 106.429 30.9375 106.438H46.0625C54.0826 106.429 61.7717 103.239 67.4428 97.5678C73.1139 91.8967 76.3037 84.2076 76.3125 76.1875V30.8125C76.3037 22.7924 73.1139 15.1033 67.4428 9.43219C61.7717 3.76111 54.0826 0.571258 46.0625 0.5625ZM68.75 30.8125V42.1562H49.8438V34.5938C49.8438 32.5881 49.047 30.6645 47.6287 29.2463C46.2105 27.828 44.2869 27.0312 42.2812 27.0312V8.125H46.0625C52.0777 8.13126 57.8447 10.5235 62.0981 14.7769C66.3515 19.0303 68.7437 24.7973 68.75 30.8125ZM42.2812 57.2812H34.7188V34.5938H42.2812V45.8902C42.2749 45.9214 42.2749 45.9536 42.2812 45.9848V57.2812ZM30.9375 8.125H34.7188V27.0312C32.7131 27.0312 30.7895 27.828 29.3713 29.2463C27.953 30.6645 27.1562 32.5881 27.1562 34.5938V42.1562H8.25V30.8125C8.25626 24.7973 10.6485 19.0303 14.9019 14.7769C19.1553 10.5235 24.9223 8.13126 30.9375 8.125ZM46.0625 98.875H30.9375C24.9223 98.8687 19.1553 96.4765 14.9019 92.2231C10.6485 87.9697 8.25626 82.2027 8.25 76.1875V49.7188H27.1562V57.2812C27.1562 59.2869 27.953 61.2105 29.3713 62.6287C30.7895 64.047 32.7131 64.8438 34.7188 64.8438H42.2812C44.2869 64.8438 46.2105 64.047 47.6287 62.6287C49.047 61.2105 49.8438 59.2869 49.8438 57.2812V49.7188H68.75V76.1875C68.7437 82.2027 66.3515 87.9697 62.0981 92.2231C57.8447 96.4765 52.0777 98.8687 46.0625 98.875Z" fill="#E2E2E2"/>
</svg>
