<svg width="12" height="20" viewBox="0 0 12 20" fill="none" xmlns="http://www.w3.org/2000/svg">
<path d="M3.77174 10.0185L11.5086 17.7554C11.7717 18.0185 11.8991 18.3255 11.8907 18.6764C11.8823 19.0273 11.7461 19.3343 11.4823 19.5975C11.2184 19.8606 10.9114 19.9922 10.5612 19.9922C10.211 19.9922 9.90402 19.8606 9.64016 19.5975L1.5349 11.5185C1.32437 11.308 1.16648 11.0712 1.06122 10.808C0.955952 10.5448 0.90332 10.2817 0.90332 10.0185C0.90332 9.75536 0.955952 9.4922 1.06122 9.22905C1.16648 8.96589 1.32437 8.72905 1.5349 8.51852L9.64016 0.413258C9.90332 0.150101 10.2149 0.0227323 10.5749 0.0311534C10.9349 0.0395744 11.2461 0.175715 11.5086 0.439574C11.771 0.703434 11.9026 1.01045 11.9033 1.36063C11.904 1.7108 11.7724 2.01782 11.5086 2.28168L3.77174 10.0185Z" fill="white"/>
</svg>
