<svg width="12" height="20" viewBox="0 0 12 20" fill="none" xmlns="http://www.w3.org/2000/svg">
<path d="M8.22826 10.0185L0.49142 17.7554C0.228262 18.0185 0.100893 18.3255 0.109314 18.6764C0.117735 19.0273 0.253876 19.3343 0.517735 19.5975C0.781595 19.8606 1.08861 19.9922 1.43879 19.9922C1.78896 19.9922 2.09598 19.8606 2.35984 19.5975L10.4651 11.5185C10.6756 11.308 10.8335 11.0712 10.9388 10.808C11.044 10.5448 11.0967 10.2817 11.0967 10.0185C11.0967 9.75536 11.044 9.4922 10.9388 9.22905C10.8335 8.96589 10.6756 8.72905 10.4651 8.51852L2.35984 0.413258C2.09668 0.150101 1.7851 0.0227323 1.4251 0.0311534C1.0651 0.0395744 0.753876 0.175715 0.49142 0.439574C0.228964 0.703434 0.097385 1.01045 0.0966832 1.36063C0.0959815 1.7108 0.22756 2.01782 0.49142 2.28168L8.22826 10.0185Z" fill="white"/>
</svg>
