<svg width="28" height="28" viewBox="0 0 28 28" fill="none" xmlns="http://www.w3.org/2000/svg">
<path d="M21.8 27.0001H3.6C2.91044 27.0001 2.24912 26.7261 1.76152 26.2385C1.27393 25.751 1 25.0896 1 24.4001V6.20007" stroke="white" stroke-width="2" stroke-linecap="round" stroke-linejoin="round"/>
<path d="M27.0002 15.3L25.3154 13.6152C24.7279 13.0278 23.931 12.6978 23.1002 12.6978C22.2694 12.6978 21.4725 13.0278 20.885 13.6152L12.7002 21.8" stroke="white" stroke-width="2" stroke-linecap="round" stroke-linejoin="round"/>
<path d="M14.0001 11.4001C15.4361 11.4001 16.6001 10.236 16.6001 8.80007C16.6001 7.36413 15.4361 6.20007 14.0001 6.20007C12.5642 6.20007 11.4001 7.36413 11.4001 8.80007C11.4001 10.236 12.5642 11.4001 14.0001 11.4001Z" stroke="white" stroke-width="2" stroke-linecap="round" stroke-linejoin="round"/>
<path d="M24.4 1H8.79995C7.36401 1 6.19995 2.16406 6.19995 3.6V19.2C6.19995 20.6359 7.36401 21.8 8.79995 21.8H24.4C25.8359 21.8 27 20.6359 27 19.2V3.6C27 2.16406 25.8359 1 24.4 1Z" stroke="white" stroke-width="2" stroke-linecap="round" stroke-linejoin="round"/>
</svg>
