<svg width="28" height="29" viewBox="0 0 28 29" fill="none" xmlns="http://www.w3.org/2000/svg">
<path d="M5 8.28571C5.26522 8.28571 5.51957 8.39483 5.70711 8.58907C5.89464 8.7833 6 9.04674 6 9.32143V14.5H11V9.32143C11 9.04674 11.1054 8.7833 11.2929 8.58907C11.4804 8.39483 11.7348 8.28571 12 8.28571C12.2652 8.28571 12.5196 8.39483 12.7071 8.58907C12.8946 8.7833 13 9.04674 13 9.32143V19.6786C13 19.9533 12.8946 20.2167 12.7071 20.4109C12.5196 20.6052 12.2652 20.7143 12 20.7143C11.7348 20.7143 11.4804 20.6052 11.2929 20.4109C11.1054 20.2167 11 19.9533 11 19.6786V16.5714H6V19.6786C6 19.9533 5.89464 20.2167 5.70711 20.4109C5.51957 20.6052 5.26522 20.7143 5 20.7143C4.73478 20.7143 4.48043 20.6052 4.29289 20.4109C4.10536 20.2167 4 19.9533 4 19.6786V9.32143C4 9.04674 4.10536 8.7833 4.29289 8.58907C4.48043 8.39483 4.73478 8.28571 5 8.28571ZM16 8.28571C15.7348 8.28571 15.4804 8.39483 15.2929 8.58907C15.1054 8.7833 15 9.04674 15 9.32143V19.6786C15 19.9533 15.1054 20.2167 15.2929 20.4109C15.4804 20.6052 15.7348 20.7143 16 20.7143H18.834C20.2041 20.7143 21.5181 20.1506 22.4869 19.1472C23.4557 18.1437 24 16.7828 24 15.3638V13.6362C24 12.2172 23.4557 10.8563 22.4869 9.85284C21.5181 8.84943 20.2041 8.28571 18.834 8.28571H16ZM18.834 18.6429H17V10.3571H18.834C20.58 10.3571 22 11.8258 22 13.6362V15.3638C22 17.1721 20.582 18.6429 18.834 18.6429ZM0 6.21429C0 4.56615 0.632141 2.98553 1.75736 1.82012C2.88258 0.654718 4.4087 0 6 0H22C23.5913 0 25.1174 0.654718 26.2426 1.82012C27.3679 2.98553 28 4.56615 28 6.21429V22.7857C28 24.4338 27.3679 26.0145 26.2426 27.1799C25.1174 28.3453 23.5913 29 22 29H6C4.4087 29 2.88258 28.3453 1.75736 27.1799C0.632141 26.0145 0 24.4338 0 22.7857V6.21429ZM6 2.07143C4.93913 2.07143 3.92172 2.50791 3.17157 3.28484C2.42143 4.06178 2 5.11553 2 6.21429V22.7857C2 23.8845 2.42143 24.9382 3.17157 25.7152C3.92172 26.4921 4.93913 26.9286 6 26.9286H22C23.0609 26.9286 24.0783 26.4921 24.8284 25.7152C25.5786 24.9382 26 23.8845 26 22.7857V6.21429C26 5.11553 25.5786 4.06178 24.8284 3.28484C24.0783 2.50791 23.0609 2.07143 22 2.07143H6Z" fill="white"/>
</svg>
