<svg width="34" height="40" viewBox="0 0 34 40" fill="none" xmlns="http://www.w3.org/2000/svg">
<path d="M17 2.85714C13.9942 2.85714 11.1115 4.06122 8.98612 6.20449C6.86071 8.34777 5.66667 11.2547 5.66667 14.2857C5.66667 16.5943 7.03517 19.4086 9.07517 22.2429C11.0727 25.02 13.5405 27.5771 15.3765 29.3286C16.303 30.2143 17.697 30.2143 18.6235 29.3286C20.4595 27.5771 22.9273 25.02 24.9248 22.2429C26.9677 19.4086 28.3333 16.5943 28.3333 14.2857C28.3333 11.2547 27.1393 8.34777 25.0139 6.20449C22.8885 4.06122 20.0058 2.85714 17 2.85714ZM2.83333 14.2857C2.83333 10.4969 4.32589 6.86328 6.98265 4.18419C9.63942 1.5051 13.2428 0 17 0C20.7572 0 24.3606 1.5051 27.0173 4.18419C29.6741 6.86328 31.1667 10.4969 31.1667 14.2857C31.1667 17.5543 29.325 21 27.2198 23.92C25.075 26.9 22.4683 29.5943 20.5728 31.4057C19.6113 32.3344 18.3314 32.8528 17 32.8528C15.6686 32.8528 14.3887 32.3344 13.4272 31.4057C11.5317 29.5943 8.925 26.9 6.78017 23.92C4.67783 21 2.83333 17.5543 2.83333 14.2857ZM21.25 14.2857C21.25 15.4224 20.8022 16.5124 20.0052 17.3162C19.2082 18.1199 18.1272 18.5714 17 18.5714C15.8728 18.5714 14.7918 18.1199 13.9948 17.3162C13.1978 16.5124 12.75 15.4224 12.75 14.2857C12.75 13.1491 13.1978 12.059 13.9948 11.2553C14.7918 10.4515 15.8728 10 17 10C18.1272 10 19.2082 10.4515 20.0052 11.2553C20.8022 12.059 21.25 13.1491 21.25 14.2857ZM28.1775 27.3571C27.5173 28.1857 26.8402 28.9743 26.1743 29.72C26.656 29.8571 27.1093 30.0038 27.5343 30.16C28.8547 30.6457 29.8237 31.1857 30.4357 31.7171C31.0505 32.2514 31.1667 32.64 31.1667 32.86C31.1667 33.0743 31.0533 33.4629 30.4357 33.9971C29.8237 34.5286 28.8547 35.0714 27.5343 35.5543C24.9078 36.52 21.182 37.1429 17 37.1429C12.818 37.1429 9.095 36.52 6.46567 35.5543C5.14533 35.0714 4.17633 34.5286 3.56433 33.9971C2.9495 33.4629 2.83333 33.0743 2.83333 32.8571C2.83333 32.6429 2.94667 32.2514 3.56433 31.7143C4.17633 31.1857 5.14533 30.6429 6.46567 30.16C6.89067 30.0038 7.344 29.8571 7.82567 29.72C7.15983 28.9771 6.48267 28.1829 5.8225 27.3571L5.49667 27.4743C3.995 28.0257 2.68317 28.7143 1.717 29.5486C0.7565 30.3829 0 31.4943 0 32.8571C0 34.22 0.7565 35.3314 1.717 36.1657C2.68033 37.0029 3.99783 37.6914 5.49667 38.24C8.5085 39.3457 12.5772 40 17 40C21.4228 40 25.4915 39.3429 28.5033 38.24C30.005 37.6914 31.3168 37.0029 32.283 36.1657C33.2435 35.3314 34 34.22 34 32.8571C34 31.4943 33.2435 30.3829 32.283 29.5486C31.3197 28.7143 30.0022 28.0229 28.5033 27.4743L28.1775 27.3571Z" fill="#ffffff"/>
<path d="M33 24L0.999999 4" stroke="#ffffff" stroke-width="2" stroke-linecap="round"/>
</svg>
