<svg width="20" height="20" viewBox="0 0 20 20" fill="none" xmlns="http://www.w3.org/2000/svg">
<path d="M9.00797 3.75805L4.93297 6.02005C4.61516 6.19738 4.35057 6.4565 4.16664 6.77054C3.98272 7.08458 3.88616 7.44211 3.88697 7.80605V12.194C3.88616 12.558 3.98272 12.9155 4.16664 13.2296C4.35057 13.5436 4.61516 13.8027 4.93297 13.98L9.00797 16.242C9.31134 16.4109 9.65278 16.4995 9.99997 16.4995C10.3472 16.4995 10.6886 16.4109 10.992 16.242L15.067 13.98C15.3848 13.8027 15.6494 13.5436 15.8333 13.2296C16.0172 12.9155 16.1138 12.558 16.113 12.194V7.80605C16.1138 7.44211 16.0172 7.08458 15.8333 6.77054C15.6494 6.4565 15.3848 6.19738 15.067 6.02005L10.992 3.75805C10.6886 3.58922 10.3472 3.50061 9.99997 3.50061C9.65278 3.50061 9.31134 3.58922 9.00797 3.75805Z" stroke="white" stroke-width="1.5"/>
<path d="M15.699 6.57703L10 10M10 10L4.30103 6.57703M10 10V16.494" stroke="white" stroke-width="1.5"/>
<path d="M19.25 5.889V3.833C19.25 3.01534 18.9252 2.23116 18.347 1.65299C17.7688 1.07482 16.9847 0.75 16.167 0.75H13.083M13.083 19.25H16.167C16.9847 19.25 17.7688 18.9252 18.347 18.347C18.9252 17.7688 19.25 16.9847 19.25 16.167V14.11M0.75 14.111V16.167C0.75 16.9847 1.07482 17.7688 1.65299 18.347C2.23116 18.9252 3.01534 19.25 3.833 19.25H6.917M6.917 0.75H3.833C3.01534 0.75 2.23116 1.07482 1.65299 1.65299C1.07482 2.23116 0.75 3.01534 0.75 3.833V5.89" stroke="white" stroke-width="1.5" stroke-linecap="round" stroke-linejoin="round"/>
</svg>
