<svg width="28" height="33" viewBox="0 0 28 33" fill="none" xmlns="http://www.w3.org/2000/svg">
<path d="M26.2223 31.0919H5.11117C4.22711 31.0919 3.37926 30.7371 2.75414 30.1056C2.12902 29.4741 1.77783 28.6176 1.77783 27.7245C1.77783 26.8315 2.12902 25.975 2.75414 25.3435C3.37926 24.712 4.22711 24.3572 5.11117 24.3572H24.0001M24.0001 24.3572C24.5894 24.3572 25.1547 24.1207 25.5714 23.6997C25.9882 23.2787 26.2223 22.7077 26.2223 22.1123V4.1531C26.2223 3.55772 25.9882 2.98672 25.5714 2.56572C25.1547 2.14472 24.5894 1.9082 24.0001 1.9082H5.11117C4.2423 1.90789 3.40765 2.25031 2.78502 2.86252C2.16239 3.47473 1.801 4.30833 1.77783 5.18575V27.6347M24.0001 24.3572V31.0919" stroke="white" stroke-width="2" stroke-linecap="round" stroke-linejoin="round"/>
<path d="M6.94189 15.675H21.2336M6.94189 10.3125H14.0877H21.2336M6.94189 13.2H21.2336M21.2336 7.42499H6.94189" stroke="white" stroke-width="1.5" stroke-linecap="round" stroke-linejoin="round"/>
</svg>
