<svg width="40" height="40" viewBox="0 0 40 40" fill="none" xmlns="http://www.w3.org/2000/svg">
<path d="M18 17.96C18 17.4296 18.2107 16.9209 18.5858 16.5458C18.9609 16.1708 19.4696 15.96 20 15.96C20.5304 15.96 21.0391 16.1708 21.4142 16.5458C21.7893 16.9209 22 17.4296 22 17.96V29.96C22 30.4905 21.7893 30.9992 21.4142 31.3743C21.0391 31.7493 20.5304 31.96 20 31.96C19.4696 31.96 18.9609 31.7493 18.5858 31.3743C18.2107 30.9992 18 30.4905 18 29.96V17.96ZM20 8.10205C19.4696 8.10205 18.9609 8.31276 18.5858 8.68784C18.2107 9.06291 18 9.57162 18 10.1021C18 10.6325 18.2107 11.1412 18.5858 11.5163C18.9609 11.8913 19.4696 12.102 20 12.102C20.5304 12.102 21.0391 11.8913 21.4142 11.5163C21.7893 11.1412 22 10.6325 22 10.1021C22 9.57162 21.7893 9.06291 21.4142 8.68784C21.0391 8.31276 20.5304 8.10205 20 8.10205Z" fill="#ffffff"/>
<path fill-rule="evenodd" clip-rule="evenodd" d="M20 0C8.954 0 0 8.954 0 20C0 31.046 8.954 40 20 40C31.046 40 40 31.046 40 20C40 8.954 31.046 0 20 0ZM4 20C4 24.2435 5.68571 28.3131 8.68629 31.3137C11.6869 34.3143 15.7565 36 20 36C24.2435 36 28.3131 34.3143 31.3137 31.3137C34.3143 28.3131 36 24.2435 36 20C36 15.7565 34.3143 11.6869 31.3137 8.68629C28.3131 5.68571 24.2435 4 20 4C15.7565 4 11.6869 5.68571 8.68629 8.68629C5.68571 11.6869 4 15.7565 4 20Z" fill="#ffffff"/>
</svg>
