<svg width="40" height="40" viewBox="0 0 40 40" fill="none" xmlns="http://www.w3.org/2000/svg">
<path d="M0 6.42857C0 4.72361 0.677294 3.08848 1.88288 1.88288C3.08848 0.677294 4.72361 0 6.42857 0H11.7571C12.3255 0 12.8705 0.225764 13.2724 0.627628C13.6742 1.02949 13.9 1.57454 13.9 2.14286C13.9 2.71118 13.6742 3.25622 13.2724 3.65809C12.8705 4.05995 12.3255 4.28571 11.7571 4.28571H6.42857C5.86025 4.28571 5.31521 4.51148 4.91334 4.91334C4.51148 5.31521 4.28571 5.86025 4.28571 6.42857V11.7571C4.28571 12.3255 4.05995 12.8705 3.65809 13.2724C3.25622 13.6742 2.71118 13.9 2.14286 13.9C1.57454 13.9 1.02949 13.6742 0.627628 13.2724C0.225764 12.8705 0 12.3255 0 11.7571V6.42857ZM26.1 2.14286C26.1 1.57454 26.3258 1.02949 26.7276 0.627628C27.1295 0.225764 27.6745 0 28.2429 0H33.5714C35.2764 0 36.9115 0.677294 38.1171 1.88288C39.3227 3.08848 40 4.72361 40 6.42857V11.7571C40 12.3255 39.7742 12.8705 39.3724 13.2724C38.9705 13.6742 38.4255 13.9 37.8571 13.9C37.2888 13.9 36.7438 13.6742 36.3419 13.2724C35.9401 12.8705 35.7143 12.3255 35.7143 11.7571V6.42857C35.7143 5.86025 35.4885 5.31521 35.0867 4.91334C34.6848 4.51148 34.1398 4.28571 33.5714 4.28571H28.2429C27.6745 4.28571 27.1295 4.05995 26.7276 3.65809C26.3258 3.25622 26.1 2.71118 26.1 2.14286ZM2.14286 26.1C2.71118 26.1 3.25622 26.3258 3.65809 26.7276C4.05995 27.1295 4.28571 27.6745 4.28571 28.2429V33.5714C4.28571 34.7543 5.24571 35.7143 6.42857 35.7143H11.7571C12.3255 35.7143 12.8705 35.9401 13.2724 36.3419C13.6742 36.7438 13.9 37.2888 13.9 37.8571C13.9 38.4255 13.6742 38.9705 13.2724 39.3724C12.8705 39.7742 12.3255 40 11.7571 40H6.42857C4.72361 40 3.08848 39.3227 1.88288 38.1171C0.677294 36.9115 0 35.2764 0 33.5714V28.2429C0 27.6745 0.225764 27.1295 0.627628 26.7276C1.02949 26.3258 1.57454 26.1 2.14286 26.1ZM37.8571 26.1C38.4255 26.1 38.9705 26.3258 39.3724 26.7276C39.7742 27.1295 40 27.6745 40 28.2429V33.5714C40 35.2764 39.3227 36.9115 38.1171 38.1171C36.9115 39.3227 35.2764 40 33.5714 40H28.2429C27.6745 40 27.1295 39.7742 26.7276 39.3724C26.3258 38.9705 26.1 38.4255 26.1 37.8571C26.1 37.2888 26.3258 36.7438 26.7276 36.3419C27.1295 35.9401 27.6745 35.7143 28.2429 35.7143H33.5714C34.1398 35.7143 34.6848 35.4885 35.0867 35.0867C35.4885 34.6848 35.7143 34.1398 35.7143 33.5714V28.2429C35.7143 27.6745 35.9401 27.1295 36.3419 26.7276C36.7438 26.3258 37.2888 26.1 37.8571 26.1Z" fill="#ffffff"/>
</svg>
