<svg width="40" height="33" viewBox="0 0 40 33" fill="none" xmlns="http://www.w3.org/2000/svg">
<path d="M38.085 10.8418L27.2449 21.5183M27.2449 10.8418L38.085 21.5183M18.1481 3.12034C18.1477 2.86498 18.071 2.61545 17.9275 2.40325C17.784 2.19104 17.5802 2.02567 17.3419 1.92799C17.1036 1.83032 16.8414 1.80473 16.5884 1.85445C16.3354 1.90416 16.1029 2.02696 15.9203 2.20734L9.65367 8.40951C9.41182 8.65037 9.1241 8.84132 8.80717 8.97129C8.49024 9.10126 8.15041 9.16767 7.80737 9.16668H3.3333C2.84216 9.16668 2.37113 9.35983 2.02384 9.70365C1.67655 10.0475 1.48145 10.5138 1.48145 11V22C1.48145 22.4862 1.67655 22.9526 2.02384 23.2964C2.37113 23.6402 2.84216 23.8333 3.3333 23.8333H7.80737C8.15041 23.8323 8.49024 23.8988 8.80717 24.0287C9.1241 24.1587 9.41182 24.3497 9.65367 24.5905L15.9185 30.7945C16.1011 30.9756 16.3339 31.099 16.5874 31.149C16.8409 31.1991 17.1036 31.1735 17.3424 31.0755C17.5812 30.9775 17.7852 30.8116 17.9287 30.5987C18.0721 30.3858 18.1485 30.1356 18.1481 29.8797V3.12034Z" stroke="white" stroke-width="3.5" stroke-linecap="round" stroke-linejoin="round"/>
</svg>
