<svg width="30" height="33" viewBox="0 0 30 33" fill="none" xmlns="http://www.w3.org/2000/svg">
<path d="M27.2223 31.0919H6.11117C5.22711 31.0919 4.37926 30.7371 3.75414 30.1056C3.12902 29.4741 2.77783 28.6176 2.77783 27.7245C2.77783 26.8315 3.12902 25.975 3.75414 25.3435C4.37926 24.712 5.22711 24.3572 6.11117 24.3572H25.0001M25.0001 24.3572C25.5894 24.3572 26.1547 24.1207 26.5714 23.6997C26.9882 23.2787 27.2223 22.7077 27.2223 22.1123V4.1531C27.2223 3.55772 26.9882 2.98672 26.5714 2.56572C26.1547 2.14472 25.5894 1.9082 25.0001 1.9082H6.11117C5.2423 1.90789 4.40765 2.25031 3.78502 2.86252C3.16239 3.47473 2.801 4.30833 2.77783 5.18575V27.6347M25.0001 24.3572V31.0919" stroke="white" stroke-width="2" stroke-linecap="round" stroke-linejoin="round"/>
<path d="M7.94189 15.675H22.2336M7.94189 10.3125H15.0877H22.2336M7.94189 13.2H22.2336M22.2336 7.42499H7.94189" stroke="white" stroke-width="1.5" stroke-linecap="round" stroke-linejoin="round"/>
<path d="M29 32L1 1" stroke="white" stroke-width="2" stroke-linecap="round"/>
</svg>
